<?xml version="1.0" encoding="utf-8"?>
<svg version="1.1"
	 id="Layer_1" xmlns:cc="http://creativecommons.org/ns#" xmlns:dc="http://purl.org/dc/elements/1.1/" xmlns:rdf="http://www.w3.org/1999/02/22-rdf-syntax-ns#" xmlns:svg="http://www.w3.org/2000/svg"
	 xmlns="http://www.w3.org/2000/svg" xmlns:xlink="http://www.w3.org/1999/xlink" x="0px" y="0px" viewBox="0 0 3061.489 2008.077"
	 enable-background="new 0 0 3061.489 2008.077" xml:space="preserve">
<filter  height="1.454902" id="filter868" style="color-interpolation-filters:sRGB" width="1.454902" x="-0.22745098" y="-0.22745098">
	<feGaussianBlur  id="feGaussianBlur870" stdDeviation="28.434216"></feGaussianBlur>
</filter>
<g>
	
		<radialGradient id="rect7_1_" cx="1530.7445" cy="1584.5585" r="1123.0497" gradientTransform="matrix(1 0 0 -1 0 2008)" gradientUnits="userSpaceOnUse">
		<stop  offset="0" style="stop-color:#FBAE81"/>
		<stop  offset="1" style="stop-color:#C3757C"/>
	</radialGradient>
	<rect id="rect7" fill="url(#rect7_1_)" width="3061.489" height="846.883"/>
	<path id="path9" stroke="#000000" stroke-width="2" stroke-miterlimit="10" d="M3061.489,1270.213c0,245.955,0,491.909,0,737.864
		c-1020.496,0-2040.993,0-3061.489,0c0-314.995,0-629.989,0-944.984c4.219,0.138,7.791-3.224,12.279-2.047
		c4.391,1.151,7.585-0.909,9.982-4.538c0.988-1.496,2.112-2.912,3.274-4.28c2.173-2.558,3.886-2.55,5.824,0.565
		c1.182,1.901,1.955,3.702,4.559,3.878c1.926,0.13,3.374-0.442,4.877-1.623c3.596-2.824,6.811-5.96,11.939-1.484
		c2.443,2.132,6.292-0.241,8.546-2.712c2.568-2.815,4.76-3.778,8.185-1.1c3.652,2.854,7.296,1.954,10.567-1.281
		c2.031-2.009,4.312-3.786,6.599-5.51c1.71-1.29,3.267-0.558,4.822,0.661c1.225,0.961,1.028,3.677,3.709,3.026
		c5.29-5.88,3.963-6.528,9.684-3.898c2.786,1.281,1.66,0.328,9.084-4.278c2.853-1.77,5.486-0.675,6.625,2.714
		c0.663,1.97-0.076,4.395,1.382,5.512c4.469,1.87,8.045-0.939,12.132-0.26c4.876,0.81,4.67-5.446,7.86-7.406
		c0.299-0.184,0.478-0.609,0.786-0.723c6.274-2.331,6.425-2.699,9.017,1.166c0.756,1.127,2.159,1.802,3.203,2.757
		c3.278,2.996,5.891,3.44,7.722,0.344c1.769-2.991,3.69-5.107,6.994-6.106c5.003-1.514,4.01-8.881,10.773-7.174
		c1.362,0.344,2.848,0.767,4.18,0.55c3.661-0.597,6.186,0.519,7.992,3.84c0.999,1.837,2.675,3.292,3.891,5.027
		c3.779,5.393,4.742,5.736,10.033,3.252c3.033-1.424,6.231-4.537,9.503-0.47c0.219,0.273,0.559,0.448,0.843,0.669
		c2.036-3.992,8.893-1.253,9.81-7.168c0.242-1.563,2.638-1.44,3.212,0.077c1.104,2.92,2.98,4.766,5.758,5.911
		c2.167,0.893,2.983,0.195,3.601-2.109c1.084-4.042,1.539-4.254,4.476-1.872c2.138,1.734,4.005,2.296,5.079-0.252
		c1.103-2.616,2.216-3.008,4.791-2.274c3.038,0.866,5.109,2.265,5.776,5.495c0.089,0.43,1.108,0.917,1.711,0.935
		c0.919,0.028,0.943-0.678,1.094-1.331c2.408-10.407,4.949,1.274,14.788-4.756c4.033-2.472,8.809-3.141,12.991,0.56
		c1.407,1.245,3.017,2.016,4.9,1.209c7.302-3.132,9.992,4.899,13.294,4.543c5.034-0.541,8.854,2.381,13.17,3.946
		c3.662,1.327,7.925,1.417,11.182,3.32c3.434,2.006,6.157,4.17,10.34,2.074c1.204-0.603,2.784,0.705,3.521,1.974
		c1.301,2.238,2.595,3.204,4.898,1.101c2.518-2.299,5.676-1.65,8.13-0.407c6.1,3.089,13.651,1.766,19.146,6.53
		c0.414,0.359,1.485,0.374,2.029,0.103c7.723-3.853,6.769,9.445,11.698,3.813c0.936-1.069,1.609-2.42,2.676-3.314
		c2.857-2.393,6.188-2.201,8.602,0.509c2.883,3.237,1.575,6.635,4.833,5.32c5.758-2.325,11.203,0.458,16.731,1.477
		c5.039,0.929,1.635,7.854,7.428,5.184c1.328-0.612,2.449-1.365,3.176-2.734c0.974-1.834,2.922-1.269,3.2-0.059
		c1.169,5.092,5.405,3.682,8.391,3.832c1.667,0.084,3.305-2.578,5.22-3.291c2.444-0.91,3.231,2.568,5.384,2.763
		c0.993,0.09,2.182-0.081,3.024-0.574c3.985-2.33,8.346-4.294,9.568-9.502c0.316-1.346,1.109-2.647,1.929-3.792
		c1.804-2.517,5.998-2.572,7.213,0.217c3.814,8.749,7.252,7.291,13.34,13.437c3.413,3.445,5.457,3.128,8.739-0.527
		c2.042-2.274,3.355-4.599,3.442-7.169c0.117-3.443,1.219-6.641,3.302-8.708c3.577-3.549,6.854-7.318,10.221-11.04
		c2.362-2.61,8.45-1.122,8.383,2.287c-0.086,4.305,2.164,4.45,5.008,5.329c2.707,0.837,2.672,2.403,0.198,4.396
		c-0.818,0.659-2.041,1.037-2.508,1.865c-1.068,1.894,0.986,2.314,1.95,3.085c2.19,1.75,2.097,3.382,0.281,5.351
		c-0.674,0.731-0.902,1.874-1.295,2.744c1.717,2.054,4.366,0.725,6.043,1.935c3.468,2.503,6.48,1.656,9.916-0.197
		c2.24-1.208,4.586-2.167,6.042-4.279c1.747-2.534,4.743-0.727,6.81-2.304c1.995-1.522,2.052-3.466-0.525-5.249
		c-1.309-0.906-2.361-1.879-1.742-3.365c0.269-0.647,1.74-1.174,2.619-1.112c2.125,0.15,4.237,0.921,6.487-0.568
		c-1.027-2.519-2.288-5.1-0.586-7.964c0.692-1.164,1.518-3.103,1.024-3.977c-2.82-4.989,1.897-7.866,3.237-11.464
		c2.032-5.457,7.179-5.396,10.241-0.432c1.129,1.83,1.982,3.883,3.358,5.496c1.51,1.77,0.266,5.348,3.77,5.735
		c3.462-5.26,3.493-5.336,8.547-3.25c1.811,0.747,3.201,0.985,4.757-0.559c1.774-1.761,3.869-3.195,5.721-4.885
		c1.451-1.325,3.233-2.137,4.895-1.331c4.132,2.003,6.582,0.857,8.541-3.161c0.873-1.791,3.194-1.004,3.728,1.148
		c0.496,1.997-0.452,4.717,1.904,5.78c2.881,1.3,5.993,2.177,9.089,2.861c1.127,0.249,3.029,0.13,2.958-2.027
		c-0.187-5.667-0.965-8.668,1.275-8.908c3.262-0.348,4.7-2.762,6.542-4.963c1.636-1.955,3.944-1.914,5.659-0.064
		c4.06,4.377,8.088,10.393,9.201,9.999c5.151-1.82,13.011,3.232,15.345-5.946c0.216-0.848,1.469-1.467,2.299-2.117
		c4.469-3.498,11.438-0.215,15.299-5.636c0.435-0.611,2.001-0.451,3.052-0.568c0.327-0.036,0.684,0.192,1.026,0.303
		c5.297,1.723,13.909-7.678,24.273-6.783c1.502-2.018,2.334-2.38,4.537-0.055c4.029,4.254,11.741,3.278,14.749-1.162
		c-1.041-4.383,4.576-4.801,5.108-8.817c0.352-2.663,2.092-6.52,5.693-7.231c2.819-0.557,3.813,2.849,5.931,4.074
		c2.395,1.385,5.427,0.053,5.037-2.97c-0.614-4.765,2.574-7.139,4.865-10.137c1.052-1.377,2.691-1.181,3.487,0.333
		c1.766,3.356,2.055,9.412,5.765,6.04c2.947-2.678,3.021-2.621,4.971-0.096c1.308,1.693,2.388,3.621,4.634,4.295
		c2.595-4.287,8.231-5.923,9.696-11.177c4.5-2.603,6.568-7.072,9.097-11.32c3.758-6.311,7.592-6,12.086,0.401
		c1.462,2.082,2.795,3.744,1.849,6.745c-0.466,1.477,2.401,4.086,1.87,5.443c-0.854,2.181-0.745,4.086-0.672,6.207
		c0.075,2.168,0.898,3.44,3.143,3.208c1.992-0.206,4.572,0.087,3.82-3.423c-0.201-0.936-0.146-2.392,0.43-2.938
		c1.505-1.428,3.316-2.563,5.118-3.622c0.366-0.215,1.434,0.234,1.819,0.685c0.916,1.072,1.722,2.273,2.376,3.525
		c0.685,1.312-0.797,3.958,2.11,3.827c3.617-0.163,2.01-5.26,7.027-7.497c1.402-0.625,1.586-2.356,1.071-3.778
		c-0.481-1.328-1.326-2.519-1.942-3.804c-0.431-0.899-1.096-2.714,0.146-2.555c5.37,0.685,5.315-4.87,8.277-7.262
		c1.133,4.6,1.756,11.361,6.698,11.58c2.213,0.098,4.547-1.443,4.366-3.647c-0.481-5.859,1.889-9.562,7.314-11.564
		c0.582-0.215,0.927-1.065,1.391-1.613c2.118-2.508,2.587-1.112,2.639,1.135c0.083,3.592,4.712,4.954,5.579,1.682
		c0.699-2.639,3.05-3.962,4.201-6.138c1.653-3.124,3.928-3.604,7.161-2.64c2.369,0.706,4.969,0.591,7.425,1.061
		c2.676,0.513,4.783-0.236,6.948-1.852c2.156-1.61,4.703,1.898,7.1-0.103c4.528-3.779,10.483-4.311,15.62-6.743
		c3.511-1.662,7.34-3.053,11.251-0.466c1.22,0.807,2.858,0.844,4.05-0.146c6.304-5.237,11.736,4.086,16.169-0.278
		c3.84-3.78,7.721-2.486,11.923-1.257c5.859,1.714,5.901,1.613,9.634-3.486c0.919-1.255,3.757-7.985,9.093-5.397
		c2.911,1.412,6.393-0.715,9.032,2.296c2.845,3.247,5.72-1.746,8.799-0.627c0.663,0.241,1.429,0.182,2.122,0.36
		c3.191,0.819,6.664,2.678,7.335-3.046c0.105-0.897,2.082-1.898,3.362-2.274c4.34-1.273,8.827,2.779,13.187-0.247
		c1.646,1.353,3.347,2.646,4.923,4.076c1.457,1.322,2.786,1.732,4.768,0.843c5.233-2.347,9.911-2.423,13.53,3.224
		c1.838,2.867,3.542,2.826,6.375,1.158c0.301-0.177,0.5-0.517,0.778-0.742c2.735-2.221,4.602-2.878,8.08,0.135
		c3.127,2.709,8.591,3.416,12.548-0.006c2.558-2.212,3.517-1.189,4.735,1.025c1.168,2.123,2.777,4.146,0.617,6.591
		c-0.038,0.043,0.88,1.205,1.076,1.129c0.639-0.246,1.174-0.796,1.705-1.279c5.907-5.379,7.152-5.293,11.61,0.588
		c1.323,1.746,2.257,3.413,2.328,5.79c0.139,4.707,6.815,3.786,10.113-1.319c3.033-4.698,1.58-7.419,13.07-4.464
		c2.004,0.515,3.606,2.106,5.998,1.912c1.506-0.122,2.451,1.109,2.384,2.864c-0.205,5.391,3.313,9.178,7.455,5.623
		c2.605-2.237,5.056-3.02,7.631-0.945c5.628,4.534,15.09,5.717,15.202,9.203c0.168,5.216,3.399,5.125,7.138,4.852
		c1.411-0.103,2.866,0.458,3.688,1.803c2.164,3.539,6.367,4.527,9.099,7.355c1.231,1.275,3.391,2.246,3.73,3.684
		c1.403,5.948,7.238,8.047,10.249,12.535c0.781,1.163,2.358,2.197,3.7,1.296c4.532-3.044,8.163-0.745,11.52,1.906
		c1.882,1.486,3.506,2.014,5.842,1.56c3.123-0.607,6.431,0.319,9.51-1.188c1.313-0.643,3.132-0.667,3.93,0.661
		c2.145,3.565,5.148,6.245,9.005,7.183c4.177,1.015,5.504,5.189,9.101,6.856c2.297,1.064,2.961,1.203,5.125-0.561
		c8.088-6.594,11.1-1.991,20.848,7.107c0.765,0.714,1.53,1.847,2.694,1.119c7.122-4.459,5.278,9.421,15.31,7.058
		c1.898-0.447,3.026,1.205,4.178,2.735c1.682,2.235,5.03,3.266,6.552,1.263c3.302-4.344,7.889-1.902,11.675-3.251
		c3.448-1.229,4.304,3.044,6.745,4.311c1.888,0.98,1.136,3.143,0.086,4.726c-0.905,1.364-1.229,2.515,0.58,3.359
		c2.601,1.213,5.207,2.416,7.799,3.648c1.578,0.75,3.143,2.193,4.699,2.173c2.374-0.03,1.273-3.139,2.432-4.14
		c2.767-2.392,4.707-4.935,4.915-8.786c0.066-1.227,1.419-2.421,2.28-3.557c0.675-0.891,2.208-1.57,2.672-0.843
		c2.35,3.683,6.808,1.995,9.62,4.056c2.565,1.879,4.39,2.685,7.55,0.462c3.021-2.125,10.618-1.779,11.917-0.1
		c2.752,3.559,7.335,4.603,10.152,7.877c2.317,2.693,4.797,3.809,8.453,3.173c2.876-0.5,6.132,0.466,7.947,2.628
		c3.217,3.831,8.644,3.317,11.845,6.827c0.612,0.671,1.246,0.716,1.919,0.128c4.174-3.646,6.217-0.684,7.877,2.695
		c1.962,3.993,5.926,6.607,9.374,6.012c4.886-0.843,8.976,1.744,13.67,1.2c3.806-0.441,4.65,1.146,3.939,5.461
		c-0.241,1.466-1.006,2.898,0.983,3.148c2.467,0.31,3.57,1.914,4.949,3.615c2.795,3.447,6.561,4.572,10.577,2.579
		c3.058-1.517,5.181-1.309,7.575,1.202c3.065,3.215,7.495,5.399,7.016,10.903c-0.053,0.61,0.643,1.261,0.91,1.926
		c2.518,6.283,4.508,7.289,12.178,6.111c0.787-0.121,5.443-1.481,5.859,2.482c0.108,1.026,0.09,2.809,0.525,2.941
		c5.844,1.768,6.419,9.112,12.871,9.149c11.57,0.066,13.331,1.022,21.013,11.032c0.692,0.902,1.534,1.79,2.577,1.425
		c6.998-2.451,7.657,9.168,14.987,13.09c2.104,1.126,3.427-0.811,4.816-0.659c2.734,0.298,0.113,5.709,3.93,4.426
		c1.513-0.508,3.11-0.486,3.71,0.997c1.908,4.72,6.272,5.817,10.214,8.282c0.505-1.8,0.952-2.807,1.047-3.846
		c0.232-2.548,1.343-4.118,4.07-3.725c1.888,0.272,2.938,1.302,3.325,3.486c1.957,11.015,8.755,17.534,19.529,19.91
		c2.112,0.466,4.199,0.75,6.115,1.843c6.102,3.482,13.085,5.343,18.37,10.362c2.713,2.576,6.22,3.291,9.969,3.029
		c4.67-0.326,8.508,0.978,10.459,5.761c0.755,1.85,2.212,2.639,4.304,2.276c1.489-0.259,2.757,0.26,3.687,1.586
		c2.182,3.112,4.472,3.093,6.986,0.273c1.423-1.596,3.064-1.63,4.537,0.085c0.698,0.813,1.211,1.899,2.073,2.438
		c2.855,1.789,4.282,4.779,6.44,7.136c2.747,3,5.951-1.457,9.129,0.19c5.396,2.796,9.4,0.822,12.792-3.952
		c1.535-2.16,4.111-2.689,6.51-0.395c0.734,0.702,1.984,0.828,2.874,1.407c3.132,2.038,5.997,2.276,9.941,1.341
		c5.39-1.279,11.267-0.528,16.936-0.587c3.684-0.038,4.116,3.134,6.276,3.624c6.871,1.561,14.02,4.383,19.868-2.273
		c2.477-2.82,5.003-2.058,7.778-0.953c2.017,0.803,4.004,1.605,5.214,3.587c2.5,4.095,6.212,4.247,10.393,3.346
		c2.403-0.517,5.304,0.115,7.281-1.005c6.544-3.706,13.197-2.711,19.841-1.133c2.324,0.552,3.952,0.395,5.969-0.811
		c2.481-1.483,4.876-2.896,6.752-5.184c1.226-1.495,3.297-2.257,4.599-0.469c3.78,5.197,9.03,5.347,14.5,4.602
		c4.08-0.556,8.38,1.095,12.315-1.782c1.516-1.108,4.02-1.134,6.246-0.343c1.257,0.447,3.472,0.716,4.088,0.025
		c2.958-3.321,6.297-2.599,9.865-1.734c1.794,0.435,3.42-0.042,4.95-1.325c5.295-4.437,11.207-2.178,15.609,0.6
		c5.941,3.75,4.65-0.547,19.11-6.641c3.873-1.632,7.683-2.718,12.161-0.008c6.34,3.836,19.847,1.605,27.297,10.759
		c4.313,5.299,11.081,5.802,16.079,9.561c0.536,0.403,1.344,0.513,2.046,0.616c3.086,0.456,4.985-3.831,7.831-2.538
		c2.365,1.074,3.304,5.188,6.728,4.402c5.756-1.32,9.415,1.385,12.686,5.484c2.891,3.624,12.994,4.138,17.573,11.68
		c1.9,3.13,4.919,3.355,8.383,1.239c1.97-1.204,3.309-1.695,5.748-1.098c9.863,2.417,10.444,9.772,14.479,7.445
		c6.397-3.689,10.929-0.49,15.137,3.924c4.879,5.118,6.911,9.719,10.484,6.799c3.737-3.053,7.341-8.551,11.274-3.153
		c4.789,6.573,9.456,10.241,18.709,6.922c7.386-2.649,14.933,0.294,18.253,8.801c1.06,2.716,3.565,3.806,5.569,4.692
		c4.187,1.851,8.958,4.042,13.233,3.604c5.189-0.531,8.677,1.813,12.948,3.297c3.06,1.063,6.49,1.494,8.514,3.983
		c5.047,6.209,12.204,5.084,16.436,8.404c2.365,1.855,3.701,0.796,5.797-3.513l-0.17,0.156c3.768-0.296,3.963,5.207,7.796,4.803
		c1.37,3.082,4.443,5.697,1.635,9.724c-1.365,1.958-1.774,4.615-2.465,7c-0.671,2.313,0.913,4.844,3.133,4.148
		c3.929-1.23,5.742,2.331,8.788,2.823c3.396,0.547,2.691-2.842,3.168-5.385c0.5-2.672,2.876-2.119,3.667-0.736
		c1.939,3.389,3.489,7.07,7.727,8.77c1.47-1.979,4.295-7.189,6.829-2.939c0.533,0.895,0.436,2.222,1.065,2.994
		c3.539,4.338,9.692,1.072,13.677,4.619c1.476,1.314,3.67,0.555,4.857-0.845c3.097-3.655,7.53,1.34,10.903-1.951
		c0.92-0.898,2.521,2.045,3.98,2.99c2.015,1.305,4.122,1.225,6.059-0.069c8.167-5.458,9.162-8.073,13.698-5.961
		c5.435,2.531,11.097,4.585,16.718,6.696c1.7,0.638,3.384,0.29,5.115-0.638c5.943-3.184,6.356-3.027,10.116,2.064
		c2.433,3.295,2.29,2.793,6.687,1.547c2.792-0.791,4.023-4.389,7.379-3.545c3.127,0.787,6.488,1.12,9.318,2.518
		c5.417,2.675,11.367,5.123,15.524,9.249c3.737,3.709,7.404,4.969,12.115,5.038c1.83-2.36,3.659-4.721,5.421-6.996
		c0.814,0.457,1.196,0.563,1.419,0.812c6.135,6.857,7.071,6.937,13.201,0.803c1-1,1.711-2.281,2.606-3.392
		c1.549-1.921,3.443-1.446,4.424,0.201c2.174,3.652,3.232,2.063,6.245,0.402c4.752-2.62,10.269-5.433,16.302-3.182
		c2.668,0.995,5.323,0.4,6.966-1.438c2.096-2.344,4.915-2.682,7.308-4.051c7.312-4.184,16.777-4.435,22.188-12.055
		c3.416-0.443,5.732-1.945,6.967-5.493c0.443-1.274,2.77-2.261,4.414-2.672c3.805-0.952,7.701-1.877,11.593-2.042
		c3.26-0.138,5.976-0.072,8.648-2.734c2.927-2.916,7.861-3.079,10.71-6.497c5.109,2.726,7.765-1.922,11.052-3.999
		c2.776-1.754,5.732-4.434,8.619-3.797c5.443,1.201,8.887-1.493,12.559-4.285c11.248-8.555,12.684,0.291,18.482-5.831
		c5.829-6.157,13.003-8.298,21.411-6.806c5.308,0.942,9.586-1.01,13.011-5.315c2.324-2.922,6.201-4.722,9.41-3.615
		c6.274,2.162,7.094-3.736,17.055-2.691c5.915,0.621,12.396,0.9,17.877-0.945c11.917-4.012,11.053,3.638,19.069,2.173
		c1.962-0.359,4.298,1.019,6.162,0.509c2.357-0.646,1.737-3.632,2.583-5.525c0.923-2.065,2.226-4.354,4.362-4.344
		c4.54,0.022,9.717-0.67,13.134,3.009c2.571,2.767,6.033,3.815,8.69,6.131c2.26,1.97,4.331,3.45,7.626,2.946
		c2.852-0.436,5.939-0.276,7.848-2.717c3.591-4.592,7.702-3.677,12.345-2.099c2.095,0.712,3.951,1.251,5.43,3.03
		c1.27,1.527,2.955,1.389,4.86,0.714c6.277-2.224,12.66-0.407,17.098,3.268c3.869,3.205,8.303,3.75,12.27,5.895
		c1.333,0.721,2.984,0.064,3.528-1.434c0.632-1.742,1.21-3.362,3.054-4.131c2.217-0.924,4.096-0.038,6.126,0.869
		c3.593,1.605,7.359,2.687,9.401,6.644c0.757,1.468,2.443,2.593,3.927,3.52c2.615,1.633,5.13,1.807,7.905-0.312
		c4.897-3.738,5.121-3.66,8.92,0.584c1.86,2.078,3.534,3.57,6.346,1.749c2.527-1.637,4.394-0.587,6.738,0.993
		c6.435,4.337,12.847,8.913,21.539,5.163c3.163-1.364,7.05-1.055,10.609-1.492c2.316-0.284,4.739,0.328,5.533,2.387
		c2.262,5.866,7.455,3.005,12.601,6.329c12.121,7.83,17.68-1.409,26.903,1.03c8.427,2.229,9.823-6.425,16.696-5.179
		c4.105,0.744,8.558,2.331,10.914-3.274c0.174-0.414,2.089-0.456,3-0.13c2.243,0.804,4.015,0.276,6.075-0.793
		c2.814-1.459,5.946-2.297,8.924-3.448c3.787-1.463,6.804-1.983,10.342,1.705c6.353,6.622,6.814,6.244,14.092,0.95
		c1.446-1.052,2.879-2.302,4.522-2.853c1.955-0.656,4.03-1.311,6.245-0.359c8.598,3.694,16.612,2.226,23.994-3.174
		c2.335-1.708,4.681-2.132,6.917-0.45c3.276,2.464,5.766,1.992,8.216-1.138c1.151-1.47,3.124-1.477,4.852-1.965
		c4.447-1.256,9.113-1.89,13.092-4.601c3.138-2.138,6.679-2.701,10.251-1.224c2.602,1.076,4.883,0.372,7.261-0.551
		c2.336-0.906,4.757-1.602,7.068-2.563c4.423-1.84,8.348-1.823,11.529,2.383C3057.262,1269.21,3059.211,1270.104,3061.489,1270.213z
		"/>
	
		<linearGradient id="path16_1_" gradientUnits="userSpaceOnUse" x1="1530.7428" y1="1659.0391" x2="1530.7428" y2="663.1875" gradientTransform="matrix(1 0 0 -1 0 2008)">
		<stop  offset="0" style="stop-color:#00244E"/>
		<stop  offset="1" style="stop-color:#07487D"/>
	</linearGradient>
	<linearGradient id="path16_2_" gradientUnits="userSpaceOnUse" x1="-1" y1="845.8004" x2="3062.4856" y2="845.8004">
		<stop  offset="0" style="stop-color:#00244E"/>
		<stop  offset="1" style="stop-color:#07487D"/>
	</linearGradient>
	<path id="path16" fill="url(#path16_1_)" stroke="url(#path16_2_)" stroke-width="2" stroke-miterlimit="10" d="M0,348.961
		c0.58,0.831,0.971,1.936,2.358,1.56c5.662-1.537,10.78,0.121,15.062,3.563c7.953,6.394,17.515,7.379,26.973,8.891
		c0.655,0.105,1.617-0.677,2.056-0.413c5.091,3.058,10.373,3.928,16.182,2.314c0.902-0.251,2.517,1.153,3.45,2.128
		c1.513,1.579,2.655,1.354,4.588,0.498c3.932-1.741,7.571-1.395,9.475,3.354c0.4,0.997,1.197,1.699,2.501,1.473
		c1.729-0.3,2.145-1.632,2.522-3.009c1.279-4.673,3.117-7.05,6.526-6.177c4.816,1.233,9.201-0.23,13.77-0.529
		c1.074-0.07,2.156-0.116,3.216-0.286c3.795-0.61,5.94,4.507,9.919,2.925c3.579-1.423,7.016-1.372,10.378,0.438
		c1.782,0.959,3.92,1.11,4.996-0.23c3.424-4.262,9.635-4.067,12.871-8.512c1.679-2.306,4.284-2.612,6.833-2.031
		c14.594,3.328,21.863-2.331,26.904-0.805c7.123,2.157,17.149-0.632,22.353,5.588c2.637,3.152,7.28,2.33,10.795,4.233
		c2.828,1.531,5.219,2.622,7.326,5.514c2.813,3.861,6.063,7.43,8.91,11.378c2.604,3.611,6.904,6,10.458,8.926
		c0.825,0.679,1.624,1.887,2.491,1.94c5.878,0.361,9.483,4.812,13.525,7.947c6.531,5.065,13.056,9.59,21.362,11.082
		c6.296,1.131,8.132,8.262,18.666,0.821c1.162-0.821,2.271-1.78,3.206-2.848c5.979-6.83,11.551-1.313,20.073-5.413
		c4.894-2.354,10.167-3.572,15.625-1.515c1.506,0.568,2.673-0.381,4.001-0.855c1.29-0.461,3.101-0.92,4.146-0.365
		c5.599,2.972,12.164,3.625,17.456,6.903c2.666,1.651,4.816,2.697,7.813,2.123c2.411-0.462,4.194,0.438,5.152,2.764
		c3.258,7.904,8.03,4.89,10.678,8.01c6.203,7.31,15.365,10.187,22.835,15.561c4.627,3.329,8.556,7.722,13.405,10.627
		c7.906,4.737,13.714,12.464,22.787,15.519c4.675,1.574,10.214,9.916,19.144,7.083c4.628-1.469,7.682,2.135,9.482,6.668
		c1.408,3.545,2.103,3.456,5.272,0.97c4.882-3.83,9.871-3.309,11.967,2.128c2.002,5.193,5.599,7.948,10.082,10.486
		c2.041,1.155,3.464,1.784,5.822,0.877c3.265-1.256,6.116,1.08,9.119,1.989c1.785,5.242,6.587,4.674,10.628,5.4
		c3.944,0.708,7.779,1.34,9.835,5.451c0.737,1.472,2.373,1.71,3.742,1.433c6.319-1.278,11.199,2.141,15.648,5.452
		c11.894,8.851,17.161,7.929,27.697,16.14c7.403,5.768,8.005,6.194,18.83,8.804c0.679,0.164,1.696,0.231,1.945,0.681
		c3.54,6.401,12.037,4.215,16.256,9.424c0.365,0.45,1.437,0.788,1.949,0.587c5.876-2.307,9.02,2.28,13.335,4.632
		c6.019,3.28,11.435,7.191,16.784,11.36c1.389,1.082,3.001,1.849,4.096,3.329c2.846,3.848,7.036,5.645,11.164,7.753
		c3.877,1.981,8.92,2.933,9.835,8.72c0.228,1.442,2.407,3.728,3.597,3.672c6.026-0.284,8.018,5.058,11.957,7.607
		c3.751,2.428,6.271,7.102,11.57,6.95c2.57,3.489,6.814,4.755,9.897,7.86c10.733,10.809,26.224,13.877,44.638,25.062
		c3.89,2.363,6.762,6.56,12.126,5.978c0.588-0.064,1.39,0.472,1.864,0.955c7.077,7.204,17.048,10.085,24.653,16.588
		c2.9,2.48,6.819,3.865,10.422,5.403c7.036,3.004,11.594,9.199,17.686,13.419c8.025,5.559,8.499,10.903,16.271,11.183
		c4.265,0.154,8.457,1.653,10.235,6.182c2.218,5.648,7.966,5.388,9.386,6.174c2.579,1.427,5.361,2.114,8.258,2.152
		c3.449,0.045,2.531,5.349,6.211,4.977c6.273,5.178,14.542,5.328,21.595,8.549c1.289,0.589,2.702,0.926,4.081,1.295
		c3.106,0.831,2.698,7.336,6.969,5.182c3.37-1.699,6.311,0.019,9.38-0.671c1.723-0.387,3.849-1.059,5.256-0.42
		c14.643,6.647,24.842-2.868,35.359,8.041c0.952,0.987,1.316,2.662,2.892,2.908c7.653,1.192,15.13,3.437,22.912,3.85
		c1.112,0.059,2.029-0.249,2.769-1.205c4.939-6.375,10.802-2.756,16.241-1.132c1.39,0.415,2.313,2.487,4.43,1.828
		c2.646-0.824,4.851,0.552,7.183,1.5c6.925,2.816,13.86,5.319,21.634,3.483c3.239-0.765,18.353,3.059,21.395,5.578
		c2.536,2.1,5.941,2.933,7.971,5.308c3.156,3.693,8,3.977,11.464,6.55c3.897,2.894,8.167,2.265,12.299,3.083
		c2.743,0.543,7.068,0.215,7.306,3.229c0.398,5.036,3.036,4.639,6.434,4.604c6.272-0.064,12.172,1.08,16.253,6.545
		c2.796,3.743,7.245,1.259,8.951,5.202c1.303,3.012,3.777,3.77,6.625,4.712c2.619,0.866,4.854,2.926,7.214,4.525
		c1.161,0.787,2.251,2.5,3.322,2.46c5.725-0.218,8.509,4.666,12.512,7.18c4.006,2.516,9.055,2.438,12.474,5.863
		c4.459,3.471,9.408,6.278,14.951,7.083c2.219,0.322,3.743,0.268,5.327,2.191c4.8,5.828,11.354,8.718,18.705,9.563
		c10.75,1.236,12.392,8.013,27.466,13.449c4.664,1.682,9.468,2.95,14.122,4.835c4.728,1.914,8.498,6.006,13.972,6.143
		c12.788,6.254,23.005,16.913,36.781,21.48c0.325,0.108,0.617,0.371,0.876,0.614c19.897,18.644,34.102,18.258,52.878,35.008
		c1.018,0.909,2.439,1.693,3.76,1.864c2.326,0.3,4.168,1.061,5.19,3.221c1.857,3.923,8.814,3.872,11.475,7.382
		c3.442,4.541,8.595,5.972,13.169,8.491c1.548,0.853,3.498,1.455,4.473,2.762c1.642,2.202,3.454,3.269,6.175,3.569
		c1.672,0.184,3.264,1.316,4.838,2.128c8.23,4.246,16.322,8.897,25.668,10.254c7.341,1.066,10.204,8.08,15.533,9.262
		c3.52,0.781,5.822,6.569,10.463,2.84c0.29-0.233,1.474,0.196,1.894,0.644c5.457,5.817,14.191,7.036,19.108,13.641
		c0.554,0.744,1.996,1.457,2.816,1.269c4.86-1.113,10.414-0.001,14.579-3.035c6.806-4.958,14.783-4.728,22.405-6.149
		c1.711-0.319,3.764-0.621,5.248,0.02c3.744,1.618,8.305,0.476,11.361,2.198c4.264,2.402,8.109,1.831,12.316,1.583
		c0.954-0.056,2.138,0.483,2.905,1.122c9.378,7.811,15.056,3.819,23.671,11.692c2.842,2.598,6.034,3.622,9.265,5.054
		c3.073,1.362,5.305,5.144,9.584,2.924c0.577-0.299,1.995,0.625,2.814,1.255c5.121,3.938,10.326,7.464,17.264,7.283
		c1.087-0.028,2.371,1.273,3.896,1.204c1.606-0.073,2.745,0.758,2.927,2.43c0.479,4.403,3.694,5.421,7.272,6.633
		c3.692,1.252,8.414,0.882,10.891,4.054c4.185,5.359,12.007,4.834,14.571,8.274c1.667,2.237,4.332,2.954,6.705,2.933
		c7.614-0.068,13.568,3.783,19.834,7.259c15.256,8.462,15.195-8.231,21.723,0.609c0.852,1.153,1.859,2.297,2.322,3.612
		c1.442,4.103,3.942,6.295,8.504,6.77c2.744,0.285,5.222,1.761,8.194,0.393c1.676-0.771,3.498,0.22,4.659,1.813
		c3.779,5.186,5.022,8.756,10.12,7.888c11.449-1.949,20.66,7.052,29.005,3.473c3.016-1.294,7.079-1.565,10.181,1.32
		c0.442,0.411,1.645,0.734,1.928,0.476c4.411-4.022,8.897,0.385,13.334-0.172c2.458-0.309,5.13,0.51,7.463-0.102
		c5.319-1.395,10.447,1.699,15.675,0.236c12.723,3.719,25.826,4.339,38.949,5.098c2.878,0.166,5.322,1.431,6.936-2.092
		c0.47-1.027,1.927-0.859,2.855-0.313c1.224,0.72,2.276,1.728,3.448,2.546c4.633,3.234,6.031-1.543,6.746-2.253
		c4.766-4.723,5.855-4.587,9.491,1.254c0.703,1.129,1.149,2.417,1.764,3.737c4.124-6.432,4.623-5.896,9.637-4.131
		c4.782,1.683,13.276-1.258,22.92,3.404c4.296,2.076,8.374,5.754,13.887,3.156c0.73-0.344,2.17,0.249,3.013,0.811
		c4.529,3.021,10.645,3.903,12.835,10.12c0.956,2.715,4.116,3.947,5.886,6.087c2.083,2.517,4.199,3.359,7.355,3.278
		c4.868-0.125,10.042-0.651,14.536,0.754c3.755,1.174,7.202-0.236,10.328,0.516c4.215,1.014,6.526-0.274,9.315-2.818
		c1.042-0.95,3.463-0.208,5.101-0.724c3.437-1.083,7.65,0.315,10.409-2.156c5.308-4.752,10.545-3.135,15.935-0.777
		c1.797,0.786,3.24,0.752,5.022-0.147c5.561-2.807,24.511-5.355,27.962-2.818c3.114,2.288,5.856,5.635,10.429,3.326
		c4.432,4.439,11.719,3.471,15.9,8.434c2.696,3.199,5.783,3.479,9.613,1.666c4.942-2.339,10.567-0.833,15.758-2.082
		c11.272,3.682,19.619-3.468,22.109-4.54c11.806-5.084,23.559-10.271,34.411-17.262c0.887-0.571,1.889-1.267,2.876-1.333
		c8.25-0.55,15.046-5.979,23.314-6.752c2.957-0.276,6.025-2.144,8.198-4.74c1.414-1.688,3.198-3.174,5.394-3.303
		c5.008-0.293,9.514-3.121,14.724-2.515c3.233,0.376,5.881-0.59,8.481-3.376c2.801-3.001,6.795-5.011,11.687-3.442
		c2.228,0.714,5.165,0.522,7.01-1.641c3.47-4.068,9.764-3.083,12.94-6.689c4.636-5.263,9.572,0.532,14.098-1.452
		c1.562-0.685,3.833-0.056,5.141-0.956c3.011-2.073,6.197-1.85,9.324-1.315c3.082,0.528,5.988,2.18,8.362-1.573
		c0.476-0.752,3.064-1.074,3.966-0.492c3.971,2.569,8.084,1.927,12.39,1.621c2.343-0.167,5.679,2.306,7.01,1.371
		c4.165-2.924,7.416,0.108,11.068,0.301c8.35,0.441,10.281,6.04,13.699,4.967c6.258-1.964,12.617,3.159,18.897-0.485
		c1.507-0.874,3.387,0.529,5.082,1.132c5.015,1.784,10.256,2.63,15.552,2.965c2.743,0.174,4.123-4.301,7.575-2.351
		c4.136,2.337,9.542,0.109,13.728,1.559c17.34,6.005,16.791,4.907,28.688,4.081c2.454-0.171,3.622,2.586,7.716,2.521
		c3.133-0.05,9.629,1.704,10.697,3.334c2.867,4.376,7.27,4.237,11.441,4.363c6.05,0.182,12.149,0.672,18.044-1.817
		c2.191-0.925,4.903-0.59,7.368-0.9c4.174-0.525,9.081,0.065,12.313-1.977c3.582-2.263,6.142-5.717,11.006-4.154
		c5.303-4.115,10.806-2.228,16.114-0.222c1.765,0.667,3.278,1.009,5.1,0.772c6.164-0.804,12.285-1.335,18.581-0.734
		c2.405,0.229,4.926-1.856,7.722,0.124c2.418,1.712,5.06,2.382,7.345-0.807c1.243-1.736,3.423-3.234,5.524-2.772
		c4.141,0.909,8.752,1.635,12.034,4.007c4.303,3.11,7.641,4.75,12.113,0.792c0.988-0.875,3.068-0.417,3.844,0.887
		c2.181,3.667,5.699,1.832,8.623,2.407c3.481,0.685,4.123,5.003,7.435,5.857c2.074,0.534,4.959,1.947,6.157,1.098
		c3.538-2.508,6.806-0.2,10.13-0.488c3.996-0.346,8.168-2.866,11.588,1.839c0.703,0.967,3.367,0.424,5.094,0.75
		c3.426,0.647,6.966,0.122,10.133,2.748c2.885,2.392,6.768,1.983,10.23,0.465c7.691-3.372,10.378,1.172,15.547,0.707
		c5.519-0.497,10.39,1.3,15.293,3.629c4.75,2.256,9.411,2.127,13.003-2.646c0.55-0.73,2.039-1.589,2.609-1.328
		c2.864,1.308,6.541-0.288,8.646,4.337c2.202,4.837,5.446,4.85,12.66,2.783c1.593-0.457,2.608,0.142,3.862,0.959
		c2.395,1.561,5.384,3.528,7.925,2.165c4.246-2.278,7.841-1.027,11.146,1.016c6.055,3.745,12.957,3.383,19.477,4.851
		c3.312-2.053,6.293-1.995,9.228,0.927c1.039,1.034,2.815,0.718,3.624-0.735c0.516-0.926,0.91-2.432,1.901-2.134
		c3.241,0.975,5.371,0.203,6.794-2.934c0.451-0.994,1.994-1.413,2.468-0.241c2.404,5.943,8.714-0.328,10.149,2.877
		c2.575,5.748,7.052,7.234,12.806,6.452c0.275-0.037,0.768,0.214,0.875,0.457c2.334,5.311,6.607,3.118,10.216,2.401
		c3.051-0.606,6.46-0.794,8.033,1.496c2.886,4.201,6.743,3.209,10.549,3.476c4.249,0.298,8.479,0.886,12.73,1.113
		c1.85,0.099,3.807-0.726,3.966-2.813c0.333-4.364,2.175-3.854,5.653-2.967c6.175,1.574,12.098,1.281,15.113-6.159
		c0.987-2.436,3.51-3.254,6.344-2.071c2.955,1.233,6.336,1.705,8.971,3.387c3.83,2.444,6.702-0.607,10.016-0.767
		c0.951-0.046,1.91,0.956,2.931,1.247c1.35,0.385,3.124,1.2,4.085,0.676c3.08-1.68,6.04-0.465,9.05-0.597
		c3.905-0.171,8.267-0.731,9.966-6.025c0.842-2.624,4.763-2.438,6.726-1.45c3.83,1.929,7.056,3.234,10.176-0.813
		c5.813-1.173,11.666-2.267,15.24-7.81c5.365-1.552,10.863-2.776,15.212-6.691c0.398-0.359,1.389-0.13,2.094-0.063
		c4.743,0.447,2.803-5.138,6.149-4.626c5.684,0.87,9.884-3.395,15.13-4.291c4.873-0.833,9.552-2.875,12.125-7.731
		c0.689-1.301,1.472-2.624,2.97-2.906c4.313-0.814,5.854-3.241,5.435-7.595c-0.194-2.011,1.1-3.294,3.229-1.347
		c0.986,0.901,2.021,0.269,2.855-0.293c7.368-4.964,4.767,7.007,13.704,2.044c2.168-1.204,4.318-2.44,6.476-3.662
		c0,81.266,0,162.531,0,243.797c-2.278-0.109-4.227-1.003-5.588-2.803c-3.181-4.206-7.107-4.223-11.529-2.383
		c-2.312,0.962-4.732,1.657-7.068,2.563c-2.379,0.922-4.66,1.627-7.261,0.551c-3.572-1.478-7.114-0.914-10.251,1.224
		c-3.979,2.711-8.645,3.345-13.092,4.601c-1.728,0.488-3.701,0.495-4.852,1.965c-2.45,3.13-4.94,3.602-8.216,1.138
		c-2.236-1.682-4.582-1.258-6.917,0.45c-7.382,5.4-15.396,6.869-23.994,3.174c-2.215-0.952-4.29-0.297-6.245,0.359
		c-1.643,0.551-3.077,1.801-4.522,2.853c-7.278,5.294-7.739,5.672-14.092-0.95c-3.538-3.688-6.555-3.168-10.342-1.705
		c-2.978,1.15-6.111,1.988-8.924,3.448c-2.061,1.069-3.833,1.597-6.075,0.793c-0.911-0.327-2.826-0.284-3,0.13
		c-2.356,5.605-6.809,4.019-10.914,3.274c-6.878-1.247-8.258,7.41-16.696,5.179c-9.224-2.44-14.782,6.799-26.903-1.03
		c-5.148-3.325-10.339-0.462-12.601-6.329c-0.794-2.058-3.217-2.671-5.533-2.387c-3.559,0.437-7.446,0.127-10.609,1.492
		c-8.692,3.75-15.104-0.826-21.539-5.163c-2.344-1.58-4.211-2.63-6.738-0.993c-2.812,1.821-4.486,0.33-6.346-1.749
		c-3.799-4.244-4.023-4.322-8.92-0.584c-2.775,2.119-5.29,1.945-7.905,0.312c-1.484-0.927-3.17-2.052-3.927-3.52
		c-2.042-3.957-5.808-5.039-9.401-6.644c-2.031-0.907-3.91-1.793-6.126-0.869c-1.844,0.769-2.422,2.388-3.054,4.131
		c-0.544,1.498-2.195,2.155-3.528,1.434c-3.966-2.145-8.4-2.69-12.27-5.895c-4.438-3.676-10.821-5.492-17.098-3.268
		c-1.905,0.675-3.59,0.813-4.86-0.714c-1.479-1.779-3.335-2.318-5.43-3.03c-4.643-1.578-8.754-2.492-12.345,2.099
		c-1.909,2.441-4.996,2.281-7.848,2.717c-3.296,0.504-5.366-0.976-7.626-2.946c-2.657-2.315-6.119-3.364-8.69-6.131
		c-3.417-3.678-8.594-2.987-13.134-3.009c-2.135-0.01-3.439,2.279-4.362,4.344c-0.846,1.893-0.226,4.879-2.583,5.525
		c-1.864,0.511-4.2-0.867-6.162-0.509c-7.983,1.459-7.19-6.172-19.069-2.173c-5.481,1.845-11.962,1.566-17.877,0.945
		c-9.965-1.046-10.776,4.854-17.055,2.691c-3.209-1.106-7.086,0.694-9.41,3.615c-3.425,4.305-7.703,6.257-13.011,5.315
		c-8.408-1.491-15.582,0.649-21.411,6.806c-5.813,6.138-7.196-2.754-18.482,5.831c-3.671,2.792-7.115,5.486-12.559,4.285
		c-2.887-0.637-5.844,2.042-8.619,3.797c-3.287,2.077-5.943,6.725-11.052,3.999c-2.85,3.418-7.783,3.581-10.71,6.497
		c-2.672,2.662-5.388,2.596-8.648,2.734c-3.892,0.165-7.788,1.09-11.593,2.042c-1.644,0.411-3.971,1.399-4.414,2.672
		c-1.234,3.548-3.551,5.051-6.967,5.493c-5.412,7.62-14.877,7.871-22.188,12.055c-2.393,1.369-5.213,1.706-7.308,4.051
		c-1.643,1.838-4.298,2.433-6.966,1.438c-6.032-2.251-11.55,0.562-16.302,3.182c-3.013,1.661-4.071,3.25-6.245-0.402
		c-0.98-1.647-2.875-2.122-4.424-0.201c-0.896,1.111-1.607,2.392-2.606,3.392c-6.131,6.134-7.066,6.054-13.201-0.803
		c-0.223-0.249-0.605-0.355-1.419-0.812c-1.762,2.275-3.591,4.635-5.421,6.996c-4.711-0.069-8.378-1.329-12.115-5.038
		c-4.157-4.126-10.106-6.574-15.524-9.249c-2.83-1.398-6.19-1.731-9.318-2.518c-3.356-0.845-4.586,2.754-7.379,3.545
		c-4.396,1.245-4.254,1.747-6.687-1.547c-3.759-5.092-4.173-5.249-10.116-2.064c-1.731,0.927-3.415,1.276-5.115,0.638
		c-5.622-2.11-11.284-4.165-16.718-6.696c-4.534-2.111-5.54,0.509-13.698,5.961c-1.937,1.294-4.044,1.374-6.059,0.069
		c-1.46-0.946-3.061-3.888-3.98-2.99c-3.373,3.291-7.806-1.704-10.903,1.951c-1.186,1.4-3.381,2.159-4.857,0.845
		c-3.985-3.547-10.138-0.281-13.677-4.619c-0.629-0.772-0.531-2.099-1.065-2.994c-2.525-4.234-5.326,0.916-6.829,2.939
		c-4.239-1.7-5.788-5.381-7.727-8.77c-0.796-1.391-3.168-1.931-3.667,0.736c-0.478,2.548,0.229,5.932-3.168,5.385
		c-3.046-0.491-4.859-4.053-8.788-2.823c-2.219,0.695-3.804-1.835-3.133-4.148c0.692-2.384,1.1-5.042,2.465-7
		c2.808-4.027-0.265-6.642-1.635-9.724c-3.833,0.403-4.029-5.099-7.796-4.804c-0.043-1.052,0.058-0.762-0.649-0.952
		c0.273,0.266,0.546,0.531,0.819,0.797c-2.096,4.309-3.431,5.368-5.797,3.513c-4.233-3.32-11.39-2.196-16.436-8.404
		c-2.024-2.49-5.454-2.921-8.514-3.983c-4.271-1.484-7.759-3.828-12.948-3.297c-4.276,0.438-9.046-1.753-13.233-3.604
		c-2.004-0.886-4.509-1.976-5.569-4.692c-3.32-8.507-10.868-11.45-18.253-8.801c-9.253,3.319-13.92-0.349-18.709-6.922
		c-3.929-5.394-7.551,0.111-11.274,3.153c-3.567,2.915-5.585-1.66-10.484-6.799c-4.208-4.415-8.74-7.613-15.137-3.924
		c-4.036,2.327-4.615-5.027-14.479-7.445c-2.438-0.598-3.777-0.106-5.748,1.098c-3.464,2.116-6.482,1.891-8.383-1.239
		c-4.572-7.529-14.7-8.078-17.573-11.68c-3.271-4.099-6.93-6.805-12.686-5.484c-3.424,0.786-4.363-3.328-6.728-4.402
		c-2.846-1.293-4.745,2.994-7.831,2.538c-0.703-0.104-1.51-0.213-2.046-0.616c-4.998-3.759-11.766-4.262-16.079-9.561
		c-7.481-9.192-20.9-6.889-27.297-10.759c-4.478-2.71-8.288-1.624-12.161,0.008c-14.479,6.103-13.166,10.394-19.11,6.641
		c-4.401-2.778-10.313-5.038-15.609-0.6c-1.531,1.283-3.156,1.76-4.95,1.325c-3.568-0.865-6.907-1.587-9.865,1.734
		c-0.616,0.691-2.831,0.422-4.088-0.025c-2.227-0.791-4.73-0.766-6.246,0.343c-3.934,2.877-8.234,1.226-12.315,1.782
		c-5.47,0.745-10.72,0.595-14.5-4.602c-1.301-1.789-3.372-1.027-4.599,0.469c-1.876,2.288-4.272,3.701-6.752,5.184
		c-2.017,1.206-3.645,1.363-5.969,0.811c-6.644-1.577-13.297-2.573-19.841,1.133c-1.977,1.12-4.878,0.487-7.281,1.005
		c-4.182,0.9-7.893,0.749-10.393-3.346c-1.21-1.982-3.197-2.784-5.214-3.587c-2.775-1.105-5.301-1.866-7.778,0.953
		c-5.848,6.656-12.998,3.834-19.868,2.273c-2.158-0.49-2.594-3.663-6.276-3.624c-5.669,0.059-11.547-0.692-16.936,0.587
		c-3.944,0.936-6.809,0.697-9.941-1.341c-0.89-0.579-2.141-0.706-2.874-1.407c-2.398-2.294-4.975-1.765-6.51,0.395
		c-3.392,4.774-7.396,6.748-12.792,3.952c-3.178-1.647-6.382,2.81-9.129-0.19c-2.158-2.357-3.585-5.347-6.44-7.136
		c-0.861-0.54-1.374-1.625-2.073-2.438c-1.473-1.715-3.114-1.682-4.537-0.085c-2.514,2.82-4.804,2.839-6.986-0.273
		c-0.93-1.326-2.198-1.844-3.687-1.586c-2.092,0.363-3.549-0.426-4.304-2.276c-1.951-4.783-5.79-6.087-10.459-5.761
		c-3.749,0.261-7.256-0.453-9.969-3.029c-5.285-5.018-12.268-6.879-18.37-10.362c-1.915-1.093-4.002-1.377-6.115-1.843
		c-10.774-2.376-17.572-8.895-19.529-19.91c-0.388-2.183-1.438-3.214-3.325-3.486c-2.727-0.393-3.838,1.177-4.07,3.725
		c-0.095,1.039-0.542,2.046-1.047,3.846c-3.942-2.465-8.307-3.562-10.214-8.282c-0.6-1.484-2.197-1.505-3.71-0.997
		c-3.818,1.283-1.194-4.127-3.93-4.426c-1.389-0.151-2.712,1.785-4.816,0.659c-7.323-3.918-7.992-15.54-14.987-13.09
		c-1.043,0.365-1.885-0.523-2.577-1.425c-7.682-10.01-9.443-10.967-21.013-11.032c-6.451-0.036-7.032-7.382-12.871-9.149
		c-0.435-0.131-0.417-1.915-0.525-2.941c-0.244-2.325-1.86-2.809-3.776-2.825c-0.693-0.006-1.387,0.236-2.083,0.343
		c-7.67,1.178-9.66,0.172-12.178-6.111c-0.266-0.665-0.963-1.316-0.91-1.926c0.479-5.504-3.951-7.687-7.016-10.903
		c-2.394-2.512-4.517-2.72-7.575-1.202c-4.016,1.993-7.782,0.868-10.577-2.579c-1.379-1.7-2.483-3.305-4.949-3.615
		c-1.989-0.25-1.224-1.682-0.983-3.148c0.71-4.315-0.134-5.903-3.939-5.461c-4.695,0.544-8.784-2.043-13.67-1.2
		c-3.448,0.595-7.412-2.02-9.374-6.012c-1.661-3.379-3.704-6.342-7.877-2.695c-0.674,0.588-1.307,0.543-1.919-0.128
		c-3.2-3.51-8.628-2.996-11.845-6.827c-1.815-2.162-5.071-3.128-7.947-2.628c-3.656,0.636-6.136-0.479-8.453-3.173
		c-2.817-3.274-7.4-4.318-10.152-7.877c-1.298-1.679-8.896-2.025-11.917,0.1c-3.16,2.223-4.985,1.417-7.55-0.462
		c-2.812-2.06-7.27-0.373-9.62-4.056c-0.464-0.727-1.998-0.047-2.672,0.843c-0.861,1.136-2.214,2.33-2.28,3.557
		c-0.208,3.851-2.147,6.394-4.915,8.786c-1.159,1.002-0.058,4.111-2.432,4.14c-1.556,0.02-3.12-1.423-4.699-2.173
		c-2.592-1.232-5.199-2.434-7.799-3.648c-1.809-0.844-1.484-1.996-0.58-3.359c1.05-1.583,1.802-3.746-0.086-4.726
		c-2.441-1.267-3.297-5.54-6.745-4.311c-3.786,1.349-8.373-1.093-11.675,3.251c-1.522,2.003-4.87,0.972-6.552-1.263
		c-1.151-1.53-2.28-3.182-4.178-2.735c-10.037,2.364-8.189-11.517-15.31-7.058c-1.164,0.729-1.929-0.405-2.694-1.119
		c-9.739-9.09-12.759-13.702-20.848-7.107c-2.164,1.764-2.829,1.625-5.125,0.561c-3.597-1.667-4.925-5.841-9.101-6.856
		c-3.857-0.938-6.861-3.617-9.005-7.183c-0.798-1.327-2.617-1.304-3.93-0.661c-3.078,1.507-6.387,0.581-9.51,1.188
		c-2.335,0.454-3.96-0.074-5.842-1.56c-3.357-2.651-6.988-4.95-11.52-1.906c-1.341,0.901-2.919-0.133-3.7-1.296
		c-3.01-4.488-8.846-6.586-10.249-12.535c-0.339-1.439-2.499-2.41-3.73-3.684c-2.732-2.828-6.935-3.816-9.099-7.355
		c-0.822-1.345-2.277-1.906-3.688-1.803c-3.739,0.272-6.97,0.363-7.138-4.852c-0.112-3.481-9.58-4.674-15.202-9.203
		c-2.575-2.075-5.026-1.291-7.631,0.945c-4.14,3.554-7.66-0.232-7.455-5.623c0.067-1.754-0.878-2.986-2.384-2.864
		c-2.391,0.194-3.993-1.396-5.998-1.912c-11.492-2.956-10.038-0.232-13.07,4.464c-3.347,5.183-9.976,5.971-10.113,1.319
		c-0.07-2.377-1.004-4.044-2.328-5.79c-4.458-5.882-5.703-5.967-11.61-0.588c-0.53,0.483-1.066,1.033-1.705,1.279
		c-0.196,0.076-1.114-1.086-1.076-1.129c2.16-2.445,0.551-4.468-0.617-6.591c-1.218-2.214-2.177-3.237-4.735-1.025
		c-3.957,3.422-9.421,2.715-12.548,0.006c-3.478-3.013-5.345-2.356-8.08-0.135c-0.278,0.226-0.478,0.565-0.778,0.742
		c-2.833,1.668-4.537,1.71-6.375-1.158c-3.619-5.647-8.297-5.572-13.53-3.224c-1.982,0.889-3.311,0.479-4.768-0.843
		c-1.576-1.43-3.277-2.723-4.923-4.076c-4.36,3.026-8.847-1.026-13.187,0.247c-1.281,0.376-3.257,1.377-3.362,2.274
		c-0.671,5.724-4.144,3.865-7.335,3.046c-0.693-0.178-1.459-0.119-2.122-0.36c-3.079-1.119-5.954,3.874-8.799,0.627
		c-2.639-3.011-6.121-0.884-9.032-2.296c-5.31-2.575-8.113,4.059-9.093,5.397c-3.733,5.099-3.775,5.2-9.634,3.486
		c-4.202-1.229-8.082-2.523-11.923,1.257c-4.445,4.375-9.859-4.963-16.169,0.278c-1.192,0.99-2.83,0.952-4.05,0.146
		c-3.911-2.587-7.74-1.195-11.251,0.466c-5.138,2.432-11.093,2.964-15.62,6.743c-2.397,2.001-4.944-1.507-7.1,0.103
		c-2.165,1.616-4.272,2.365-6.948,1.852c-2.455-0.47-5.056-0.355-7.425-1.061c-3.233-0.964-5.508-0.484-7.161,2.64
		c-1.151,2.176-3.502,3.499-4.201,6.138c-0.869,3.282-5.495,1.904-5.579-1.682c-0.052-2.247-0.521-3.643-2.639-1.135
		c-0.463,0.549-0.808,1.398-1.391,1.613c-5.425,2.002-7.795,5.705-7.314,11.564c0.181,2.203-2.154,3.745-4.366,3.647
		c-4.943-0.219-5.568-6.995-6.698-11.58c-2.962,2.392-2.907,7.947-8.277,7.262c-1.242-0.159-0.577,1.656-0.146,2.555
		c0.616,1.285,1.462,2.476,1.942,3.804c0.515,1.422,0.33,3.153-1.071,3.778c-4.995,2.228-3.433,7.336-7.027,7.497
		c-2.907,0.131-1.425-2.515-2.11-3.827c-0.653-1.252-1.46-2.453-2.376-3.525c-0.385-0.45-1.453-0.9-1.819-0.685
		c-1.802,1.06-3.613,2.195-5.118,3.622c-0.575,0.545-0.63,2.002-0.43,2.938c0.752,3.51-1.828,3.216-3.82,3.423
		c-2.246,0.232-3.068-1.041-3.143-3.208c-0.073-2.122-0.182-4.026,0.672-6.207c0.531-1.357-2.336-3.965-1.87-5.443
		c0.946-3.001-0.388-4.664-1.849-6.745c-4.495-6.4-8.329-6.711-12.086-0.401c-2.529,4.247-4.596,8.716-9.097,11.32
		c-1.465,5.255-7.101,6.89-9.696,11.177c-2.246-0.675-3.325-2.602-4.634-4.295c-1.95-2.524-2.024-2.581-4.971,0.096
		c-3.711,3.372-3.999-2.683-5.765-6.04c-0.796-1.513-2.434-1.71-3.487-0.333c-2.291,2.998-5.479,5.372-4.865,10.137
		c0.39,3.024-2.642,4.356-5.037,2.97c-2.118-1.225-3.112-4.631-5.931-4.074c-3.601,0.711-5.341,4.568-5.693,7.231
		c-0.531,4.016-6.148,4.434-5.108,8.817c-3.008,4.44-10.719,5.417-14.749,1.162c-2.202-2.325-3.035-1.964-4.537,0.055
		c-10.372-0.896-18.966,8.509-24.273,6.783c-0.342-0.111-0.699-0.339-1.026-0.303c-1.051,0.117-2.617-0.043-3.052,0.568
		c-3.861,5.421-10.83,2.138-15.299,5.636c-0.83,0.65-2.084,1.269-2.299,2.117c-2.334,9.178-10.195,4.126-15.345,5.946
		c-1.113,0.393-5.143-5.625-9.201-9.999c-1.716-1.849-4.023-1.891-5.659,0.064c-1.841,2.201-3.28,4.615-6.542,4.963
		c-2.233,0.238-1.464,3.2-1.275,8.908c0.071,2.157-1.831,2.276-2.958,2.027c-3.095-0.684-6.208-1.561-9.089-2.861
		c-2.356-1.063-1.408-3.783-1.904-5.78c-0.534-2.151-2.856-2.938-3.728-1.148c-1.959,4.019-4.409,5.165-8.541,3.161
		c-1.662-0.806-3.444,0.006-4.895,1.331c-1.851,1.69-3.946,3.124-5.721,4.885c-1.555,1.543-2.945,1.306-4.757,0.559
		c-5.054-2.086-5.085-2.01-8.547,3.25c-3.504-0.387-2.26-3.965-3.77-5.735c-1.376-1.613-2.229-3.665-3.358-5.496
		c-3.062-4.964-8.209-5.025-10.241,0.432c-1.34,3.598-6.057,6.475-3.237,11.464c0.494,0.874-0.332,2.813-1.024,3.977
		c-1.703,2.864-0.441,5.445,0.586,7.964c-2.25,1.489-4.362,0.718-6.487,0.568c-0.88-0.062-2.35,0.465-2.619,1.112
		c-0.618,1.487,0.433,2.459,1.742,3.365c2.577,1.783,2.521,3.727,0.525,5.249c-2.067,1.577-5.063-0.229-6.81,2.304
		c-1.456,2.112-3.802,3.07-6.042,4.279c-3.436,1.854-6.448,2.7-9.916,0.197c-1.677-1.21-4.326,0.118-6.043-1.935
		c0.393-0.87,0.621-2.012,1.295-2.744c1.815-1.969,1.908-3.601-0.281-5.351c-0.964-0.77-3.017-1.19-1.95-3.085
		c0.467-0.828,1.69-1.206,2.508-1.865c2.474-1.993,2.51-3.559-0.198-4.396c-2.843-0.879-5.093-1.024-5.008-5.329
		c0.068-3.409-6.021-4.897-8.383-2.287c-3.367,3.721-6.644,7.491-10.221,11.04c-2.083,2.067-3.185,5.265-3.302,8.708
		c-0.088,2.57-1.4,4.896-3.442,7.169c-3.282,3.655-5.326,3.972-8.739,0.527c-6.127-6.185-9.514-4.659-13.34-13.437
		c-1.216-2.789-5.41-2.734-7.213-0.217c-0.821,1.145-1.613,2.447-1.929,3.792c-1.222,5.208-5.583,7.172-9.568,9.502
		c-0.843,0.493-2.032,0.664-3.024,0.574c-2.152-0.194-2.94-3.673-5.384-2.763c-1.916,0.714-3.553,3.375-5.22,3.291
		c-2.986-0.15-7.221,1.26-8.391-3.832c-0.278-1.209-2.226-1.775-3.2,0.059c-0.727,1.369-1.848,2.122-3.176,2.734
		c-5.793,2.67-2.39-4.255-7.428-5.184c-5.528-1.019-10.974-3.802-16.731-1.477c-3.255,1.314-1.945-2.077-4.833-5.32
		c-2.414-2.71-5.744-2.902-8.602-0.509c-1.067,0.894-1.74,2.244-2.676,3.314c-4.923,5.626-3.978-7.664-11.698-3.813
		c-0.543,0.271-1.615,0.256-2.029-0.103c-5.495-4.764-13.047-3.441-19.146-6.53c-2.454-1.243-5.612-1.892-8.13,0.407
		c-2.302,2.102-3.597,1.136-4.898-1.101c-0.737-1.268-2.318-2.577-3.521-1.974c-4.184,2.096-6.906-0.068-10.34-2.074
		c-3.257-1.903-7.521-1.993-11.182-3.32c-4.316-1.565-8.136-4.487-13.17-3.946c-3.313,0.356-5.98-7.68-13.294-4.543
		c-1.883,0.808-3.493,0.036-4.9-1.209c-4.182-3.701-8.958-3.032-12.991-0.56c-9.847,6.035-12.377-5.663-14.788,4.756
		c-0.151,0.653-0.175,1.359-1.094,1.331c-0.602-0.019-1.622-0.505-1.711-0.935c-0.667-3.23-2.737-4.629-5.776-5.495
		c-2.575-0.734-3.688-0.342-4.791,2.274c-1.074,2.547-2.941,1.985-5.079,0.252c-2.937-2.382-3.391-2.169-4.476,1.872
		c-0.618,2.304-1.435,3.002-3.601,2.109c-2.778-1.145-4.654-2.992-5.758-5.911c-0.574-1.517-2.97-1.64-3.212-0.077
		c-0.917,5.915-7.774,3.176-9.81,7.168c-0.284-0.221-0.624-0.396-0.843-0.669c-3.258-4.05-6.416-0.98-9.503,0.47
		c-5.291,2.484-6.254,2.141-10.033-3.252c-1.216-1.735-2.892-3.19-3.891-5.027c-1.806-3.321-4.331-4.437-7.992-3.84
		c-1.331,0.217-2.818-0.206-4.18-0.55c-6.762-1.706-5.774,5.662-10.773,7.174c-3.303,0.999-5.225,3.115-6.994,6.106
		c-1.832,3.097-4.444,2.652-7.722-0.344c-1.044-0.954-2.447-1.63-3.203-2.757c-2.608-3.889-2.776-3.484-9.017-1.166
		c-0.308,0.115-0.487,0.54-0.786,0.723c-3.19,1.96-2.985,8.216-7.86,7.406c-4.087-0.679-7.662,2.13-12.132,0.26
		c-1.458-1.116-0.719-3.542-1.382-5.512c-1.14-3.389-3.772-4.484-6.625-2.714c-7.415,4.601-6.295,5.561-9.084,4.278
		c-5.726-2.633-4.398-1.978-9.684,3.898c-2.682,0.651-2.484-2.066-3.709-3.026c-1.555-1.219-3.111-1.952-4.822-0.661
		c-2.287,1.725-4.568,3.501-6.599,5.51c-3.271,3.235-6.915,4.135-10.567,1.281c-3.426-2.677-5.618-1.714-8.185,1.1
		c-2.254,2.471-6.103,4.844-8.546,2.712c-5.129-4.476-8.344-1.34-11.939,1.484c-1.503,1.181-2.951,1.753-4.877,1.623
		c-2.605-0.176-3.377-1.977-4.559-3.878c-1.937-3.115-3.651-3.124-5.824-0.565c-1.162,1.368-2.286,2.784-3.274,4.28
		c-2.397,3.629-5.591,5.689-9.982,4.538c-4.488-1.177-8.06,2.186-12.279,2.047C0,825.049,0,587.005,0,348.961z"/>
	
		<linearGradient id="path23_1_" gradientUnits="userSpaceOnUse" x1="2115.73" y1="1609.8521" x2="2115.73" y2="916.5615" gradientTransform="matrix(1 0 0 -1 0 2008)">
		<stop  offset="0" style="stop-color:#003A7D"/>
		<stop  offset="1" style="stop-color:#0A68B5"/>
	</linearGradient>
	<linearGradient id="path23_2_" gradientUnits="userSpaceOnUse" x1="1168.1803" y1="744.7932" x2="3062.4905" y2="744.7932">
		<stop  offset="0" style="stop-color:#003A7D"/>
		<stop  offset="1" style="stop-color:#0A68B5"/>
	</linearGradient>
	<path id="path23" fill="url(#path23_1_)" stroke="url(#path23_2_)" stroke-width="2" stroke-miterlimit="10" d="M3061.489,1026.415
		c-2.158,1.222-4.308,2.458-6.476,3.662c-2.763,1.534-5.637,1.88-7.504-1.043c-3.623-5.675-6.695,1.451-9.055-0.707
		c-2.13-1.948-3.423-0.665-3.229,1.347c0.419,4.354-1.122,6.781-5.435,7.595c-1.498,0.283-2.281,1.606-2.97,2.906
		c-2.573,4.856-7.252,6.898-12.125,7.731c-5.245,0.896-9.446,5.161-15.13,4.291c-1.223-0.187-2.084,0.753-2.368,1.751
		c-1.327,4.667-4.904,2.063-5.876,2.938c-4.349,3.915-9.847,5.139-15.212,6.691c-3.574,5.542-9.427,6.637-15.24,7.81
		c-3.119,4.047-6.346,2.741-10.176,0.813c-1.963-0.988-5.884-1.173-6.726,1.45c-1.699,5.295-6.061,5.854-9.966,6.025
		c-3.01,0.132-5.97-1.083-9.05,0.597c-0.961,0.524-2.735-0.292-4.085-0.676c-1.021-0.291-1.98-1.293-2.931-1.247
		c-3.314,0.16-6.186,3.212-10.016,0.767c-2.635-1.681-6.016-2.153-8.971-3.387c-2.834-1.183-5.357-0.365-6.344,2.071
		c-3.015,7.44-8.938,7.733-15.113,6.159c-3.479-0.887-5.321-1.397-5.653,2.967c-0.159,2.087-2.116,2.913-3.966,2.813
		c-4.251-0.228-8.481-0.815-12.73-1.113c-3.807-0.267-7.663,0.725-10.549-3.476c-1.574-2.29-4.983-2.102-8.033-1.496
		c-3.609,0.717-7.882,2.911-10.216-2.401c-0.107-0.242-0.6-0.494-0.875-0.457c-5.753,0.782-10.231-0.704-12.806-6.452
		c-1.432-3.197-7.746,3.063-10.149-2.877c-0.474-1.171-2.017-0.753-2.468,0.241c-1.424,3.137-3.553,3.909-6.794,2.934
		c-0.991-0.298-1.385,1.208-1.901,2.134c-0.81,1.453-2.585,1.769-3.624,0.735c-2.936-2.921-5.916-2.979-9.228-0.927
		c-6.52-1.467-13.422-1.106-19.477-4.851c-3.304-2.044-6.9-3.295-11.146-1.016c-2.54,1.363-5.529-0.604-7.925-2.165
		c-1.254-0.817-2.269-1.416-3.862-0.959c-7.214,2.067-10.458,2.054-12.66-2.783c-2.105-4.625-5.781-3.028-8.646-4.337
		c-0.57-0.261-2.059,0.598-2.609,1.328c-3.592,4.773-8.253,4.902-13.003,2.646c-13.3-6.318-14.016-1.945-20.488-4.574
		c-3.397-1.38-6.902-1.275-10.352,0.238c-3.462,1.517-7.344,1.927-10.23-0.465c-3.167-2.626-6.707-2.101-10.133-2.748
		c-1.727-0.326-4.391,0.217-5.094-0.75c-3.42-4.704-7.592-2.185-11.588-1.839c-3.324,0.288-6.592-2.02-10.13,0.488
		c-1.198,0.849-4.083-0.564-6.157-1.098c-3.312-0.853-3.954-5.172-7.435-5.857c-2.923-0.575-6.441,1.261-8.623-2.407
		c-0.776-1.304-2.856-1.762-3.844-0.887c-4.471,3.958-7.81,2.319-12.113-0.792c-3.282-2.372-7.893-3.098-12.034-4.007
		c-2.101-0.461-4.281,1.037-5.524,2.772c-2.285,3.189-4.927,2.52-7.345,0.807c-2.796-1.979-5.317,0.106-7.722-0.124
		c-6.296-0.601-12.417-0.07-18.581,0.734c-1.822,0.238-3.335-0.105-5.1-0.772c-5.308-2.006-10.811-3.893-16.114,0.222
		c-4.864-1.563-7.424,1.891-11.006,4.154c-3.232,2.042-8.139,1.452-12.313,1.977c-2.466,0.31-5.177-0.025-7.368,0.9
		c-5.895,2.489-11.993,1.999-18.044,1.817c-4.171-0.126-8.574,0.013-11.441-4.363c-1.068-1.63-7.564-3.385-10.697-3.334
		c-4.09,0.065-5.263-2.691-7.716-2.521c-11.897,0.826-11.349,1.924-28.688-4.081c-4.211-1.458-9.58,0.784-13.728-1.559
		c-3.452-1.95-4.832,2.525-7.575,2.351c-5.296-0.335-10.537-1.181-15.552-2.965c-1.694-0.602-3.574-2.006-5.082-1.132
		c-6.28,3.645-12.639-1.479-18.897,0.485c-3.415,1.072-5.35-4.526-13.699-4.967c-3.652-0.193-6.904-3.225-11.068-0.301
		c-1.331,0.935-4.668-1.538-7.01-1.371c-4.306,0.306-8.418,0.948-12.39-1.621c-0.901-0.583-3.49-0.26-3.966,0.492
		c-2.375,3.753-5.28,2.101-8.362,1.573c-3.128-0.536-6.313-0.758-9.324,1.315c-1.308,0.9-3.578,0.272-5.141,0.956
		c-4.525,1.984-9.462-3.812-14.098,1.452c-3.176,3.606-9.471,2.621-12.94,6.689c-1.845,2.163-4.782,2.355-7.01,1.641
		c-4.891-1.569-8.886,0.441-11.687,3.442c-2.6,2.786-5.248,3.752-8.481,3.376c-5.21-0.606-9.716,2.222-14.724,2.515
		c-2.196,0.129-3.98,1.614-5.394,3.303c-2.173,2.595-5.241,4.464-8.198,4.74c-8.268,0.772-15.064,6.201-23.314,6.752
		c-0.987,0.066-1.989,0.762-2.876,1.333c-10.852,6.991-22.605,12.177-34.411,17.262c-2.447,1.053-10.821,8.227-22.109,4.54
		c-5.191,1.248-10.816-0.258-15.758,2.082c-3.83,1.813-6.917,1.533-9.613-1.666c-4.181-4.964-11.468-3.995-15.9-8.434
		c-4.573,2.309-7.315-1.038-10.429-3.326c-3.448-2.534-22.392,0.007-27.962,2.818c-1.782,0.899-3.225,0.933-5.022,0.147
		c-5.391-2.357-10.627-3.975-15.935,0.777c-2.759,2.47-6.971,1.072-10.409,2.156c-1.638,0.516-4.059-0.227-5.101,0.724
		c-2.789,2.544-5.1,3.832-9.315,2.818c-3.126-0.752-6.573,0.658-10.328-0.516c-4.493-1.405-9.667-0.88-14.536-0.754
		c-3.156,0.081-5.273-0.76-7.355-3.278c-1.77-2.14-4.93-3.373-5.886-6.087c-2.19-6.217-8.306-7.099-12.835-10.12
		c-0.843-0.562-2.283-1.155-3.013-0.811c-5.513,2.598-9.591-1.08-13.887-3.156c-9.62-4.65-18.197-1.741-22.92-3.404
		c-5.012-1.765-5.513-2.302-9.637,4.131c-0.614-1.32-1.061-2.608-1.764-3.737c-3.636-5.84-4.726-5.977-9.491-1.254
		c-0.493,0.489-0.705,1.248-1.141,1.81c-3.039,3.919-6.477-0.588-9.053-2.103c-0.928-0.546-2.384-0.714-2.855,0.313
		c-1.614,3.522-4.058,2.258-6.936,2.092c-13.123-0.758-26.226-1.379-38.949-5.098c-5.228,1.463-10.356-1.631-15.675-0.236
		c-2.333,0.612-5.005-0.207-7.463,0.102c-4.437,0.557-8.923-3.849-13.334,0.172c-0.283,0.258-1.486-0.065-1.928-0.476
		c-3.102-2.885-7.165-2.614-10.181-1.32c-8.338,3.577-17.548-5.424-29.005-3.473c-5.102,0.869-6.345-2.706-10.12-7.888
		c-1.161-1.593-2.983-2.584-4.659-1.813c-2.972,1.368-5.45-0.108-8.194-0.393c-4.562-0.474-7.062-2.667-8.504-6.77
		c-0.462-1.315-1.47-2.459-2.322-3.612c-2.302-3.117-3.72-3.651-6.993-0.887c-10.768,9.092-18.995-7.119-34.564-6.981
		c-2.372,0.021-5.037-0.695-6.705-2.933c-2.562-3.437-10.39-2.921-14.571-8.274c-2.477-3.172-7.199-2.803-10.891-4.054
		c-3.578-1.213-6.792-2.23-7.272-6.633c-0.182-1.672-1.321-2.502-2.927-2.43c-1.525,0.069-2.809-1.233-3.896-1.204
		c-6.939,0.181-12.143-3.345-17.264-7.283c-0.819-0.63-2.237-1.554-2.814-1.255c-4.279,2.22-6.511-1.561-9.584-2.924
		c-3.23-1.432-6.422-2.456-9.265-5.054c-8.586-7.847-14.301-3.887-23.671-11.692c-0.767-0.639-1.951-1.178-2.905-1.122
		c-4.207,0.248-8.052,0.819-12.316-1.583c-3.055-1.721-7.616-0.58-11.361-2.198c-1.484-0.641-3.537-0.339-5.248-0.02
		c-7.622,1.421-15.599,1.191-22.405,6.149c-4.165,3.034-9.719,1.922-14.579,3.035c-0.82,0.188-2.262-0.525-2.816-1.269
		c-4.918-6.606-13.651-7.824-19.108-13.641c-0.42-0.448-1.604-0.877-1.894-0.644c-4.641,3.729-6.943-2.06-10.463-2.84
		c-5.33-1.182-8.193-8.197-15.533-9.262c-9.346-1.357-17.438-6.007-25.668-10.254c-1.574-0.812-3.166-1.944-4.838-2.128
		c-2.721-0.3-4.533-1.367-6.175-3.569c-0.975-1.307-2.925-1.909-4.473-2.762c-4.575-2.519-9.728-3.95-13.169-8.491
		c-2.661-3.511-9.618-3.459-11.475-7.382c-1.022-2.16-2.864-2.921-5.19-3.221c-1.321-0.17-2.741-0.955-3.76-1.864
		c-18.883-16.845-32.881-16.271-52.878-35.008c-0.259-0.243-0.551-0.506-0.876-0.614c-13.776-4.567-23.993-15.226-36.781-21.48
		c-5.474-0.136-9.244-4.228-13.972-6.143c-9.412-3.811-18.085-4.654-29.069-12.851c-3.891-2.904-7.693-4.878-12.519-5.433
		c-7.351-0.845-13.905-3.736-18.705-9.563c-1.584-1.923-3.108-1.869-5.327-2.191c-5.543-0.805-10.492-3.612-14.951-7.083
		c5.555-3.191,9.136,4.283,19.774,6.239c4.343,0.798,8.054,2.621,10.331,6.905c1.348,2.536,3.827,2.966,6.452,1.307
		c1.808-1.143,3.685-2.188,5.59-3.162c1.27-0.649,2.797-1.779,3.946-1.522c6.768,1.517,12.098-2.87,18.177-4.047
		c8.926-1.729,18.056-0.132,36.692-6.985c4.752-1.747,9.547-2.741,14.651-3.039c7.091-0.413,14.077-2.271,21.283-1.412
		c2.251,0.268,4.111-1.031,5.872-2.334c5.768-4.269,11.901-8.123,17.253-12.86c11.286-9.989,24.026-18.007,36.029-26.999
		c15.294-11.458,33.403-7.355,50.238-13.365c7.892-2.817,8.695,2.828,22.122-1.302c2.12-0.652,4.122-0.888,6.279-0.95
		c4.783-0.139,9.791-1.725,12.754-4.798c8.616-8.935,19.29-11.227,30.394-9.404c8.917,1.464,16.364-1.012,23.614-4.622
		c17.892-8.907,23.017-4.758,36.111-15.374c13.803-11.191,29.65-16.861,47.632-16.139c6.398,0.257,12.778-1.115,19.236-0.403
		c1.591,0.175,3.329-1.082,5.015-1.634c18.574-6.086,12.947-3.849,18.88-6.867c4.009-2.039,8.857-4.171,13.054-3.672
		c5.869,0.698,12.593-1.901,17.537,2.355c2.949,2.539,4.208,1.593,7.02,0.25c3.822-1.826,8.476,0.792,12.628-0.948
		c5.413,3.765,11.929-1.382,17.483,2.155c0.939,0.598,3.06,0.229,4.158-0.456c8.517-5.318,19.132-5.531,27.422-11.407
		c1.669-1.183,3.959-1.003,5.739-2.606c6.229-5.606,13.811-7.342,21.942-6.154c2.577,0.377,4.035-0.099,5.137-2.309
		c0.633-1.27,1.498-2.941,3.038-2.434c5.974,1.964,8.305-8.054,13.924-4.026c0.485,0.348,1.916-0.769,2.955-1.021
		c4.113-0.998,4.901-7.788,10.47-6.092c4.241,1.292,7.307-2.288,11.313-2.415c4.222-0.134,8.163-2.214,12.576-2.472
		c8.132-0.476,15.607-2.66,21.901-8.762c3.699-3.586,9.202-5.16,12.802-9.327c1.505-1.742,4.063-1.561,6.087-0.716
		c3.05,1.274,5.598,0.494,8.034-1.272c4.816-3.492,11.171-4.392,15.383-8.724c2.634-2.708,6.146-1.404,8.974-3.009
		c5.572-3.161,11.369-5.923,17.006-8.974c3.086-1.67,6.004-3.247,9.636-4.014c6.502-1.374,12.258-5.519,19.168-5.836
		c4.945-5.558,13.532-3.764,18.554-9.18c0.233-0.251,0.618-0.358,0.928-0.54c4.48-2.632,10.06-1.874,14.374-6.107
		c3.648-3.579,9.406-4.988,14.193-7.43c4.786-2.441,9.386-5.3,14.315-7.394c10.894-4.629,21.702-9.389,31.998-15.269
		c4.533-2.588,9.581-2.831,14.646-2.352c3.241,0.306,6.055,0.015,9.205-1.546c5.503-2.728,17.563-2.742,32.719-10.205
		c11.19-5.511,23-6.972,35.439-5.312c9.592,1.28,19.315,1.698,28.997,2.13c6.072,0.271,12.051-0.356,18.119-1.748
		c11.19-2.568,22.794-2.461,34.204-2.357c16.082,0.146,21.792,12.606,44.647,22.328c1.617,0.688,3.512,1.839,5.009,1.518
		c11.41-2.45,23.719-0.111,34.409-6.566c2.06-1.244,4.802-2.034,7.189-1.948c12.719,0.457,24.53-4.585,36.972-5.783
		c24.988-2.405,16.428-0.358,47.144-3.106c2.401-0.215,4.721-1.586,7.028-2.546c15.471-6.437,36.555-0.68,56.146-5.341
		c9.94-2.365,23.139-3.58,26.375-4.988c4.907-2.135,9.542-5.644,14.62-6.423c31.681-4.858,35.476-15.996,56.765-13.603
		c12.25,1.377,24.369,0.391,36.521-0.672c6.149-0.538,10.142-4.739,24.089-4.976c5.533-0.094,7.139-1.08,35.942-10.898
		c2.368-0.807,4.87-1.401,7.032-2.596c4.178-2.308,8.566-3.404,13.281-4.02c8.906-1.165,19.694-4.765,40.367-10.932
		c12.003-3.581,3.474,1.163,41.098-11.824c1.017-0.351,1.993-0.941,3.034-1.084c12.919-1.776,24.717-6.959,36.594-11.917
		c0.984-0.411,2.053-0.829,3.094-0.858c11.035-0.317,20.507-6.217,30.893-8.58c9.73-2.213,18.869-6.355,29.013-7.437
		c6.522-0.695,12.688-4.529,19.066-6.81c11.066-3.959,21.325-10.282,33.32-11.527c32.89-3.414,30.449-3.036,36.373-2.563
		c1.422,0.113,2.98,1.104,4.199,0.748c10.722-3.131,20.639,1.114,30.455,3.816c17.921,4.933,35.809,10.309,52.886,17.681
		c8.203,3.541,17.111,5.13,24.89,9.814c3.471,2.09,7.747,0.611,11.667,0.378C3061.489,629.436,3061.489,827.926,3061.489,1026.415z"
		/>
	<path id="path25" d="M2192.094,1291.733c-0.273-0.266-0.546-0.531-0.819-0.797c0.707,0.191,0.606-0.099,0.649,0.952
		C2191.924,1291.889,2192.094,1291.733,2192.094,1291.733z"/>
	<g>
		<g id="circle29" opacity="0.6797" filter="url(#filter868)" enable-background="new    ">
			<circle fill="#FFBE3D" cx="1714.744" cy="516.198" r="150.015"/>
		</g>
		
			<radialGradient id="circle36_1_" cx="1714.744" cy="1491.802" r="58" gradientTransform="matrix(1 0 0 -1 0 2008)" gradientUnits="userSpaceOnUse">
			<stop  offset="0" style="stop-color:#FBF8FC"/>
			<stop  offset="1" style="stop-color:#FBF8FC"/>
		</radialGradient>
		<circle id="circle36" fill="url(#circle36_1_)" cx="1714.744" cy="516.198" r="58"/>
		<circle id="circle36-8" fill="#FFFFFF" cx="1714.744" cy="516.198" r="58"/>
	</g>
</g>
</svg>
